<?xml version="1.0" encoding="utf-8"?>
<!-- Generator: Adobe Illustrator 24.0.3, SVG Export Plug-In . SVG Version: 6.00 Build 0)  -->
<svg version="1.1" id="Vrstva_1" xmlns="http://www.w3.org/2000/svg" xmlns:xlink="http://www.w3.org/1999/xlink" x="0px" y="0px"
	 viewBox="0 0 121 56.2" style="enable-background:new 0 0 121 56.2;" xml:space="preserve">
<style type="text/css">
	.st0{fill:#010202;}
</style>
<path id="Path_357" class="st0" d="M55.3,35.3L45.3,11.2h2.2L56.6,33l9.1-21.8h2.1l-10,24.1L55.3,35.3z"/>
<path id="Path_358" class="st0" d="M89,27c0,5.8-3.8,8.8-9.7,8.8c-5.8,0-9.6-3-9.6-8.8v-7.5c0-5.8,3.8-8.8,9.6-8.8s9.6,3,9.6,8.8
	L89,27z M86.9,19.4c0-4.5-3-6.8-7.5-6.8s-7.5,2.3-7.5,6.8v7.8c0,4.5,3,6.8,7.5,6.8c4.6,0,7.6-2.3,7.6-6.8L86.9,19.4z"/>
<path id="Path_359" class="st0" d="M89.1,0h8.4v28.2c0,4.3,1.1,6.4,7.3,5.3v1.8c-8.3,1.6-9.4-2.1-9.4-7.5v-26h-6.3V0z"/>
<path id="Path_360" class="st0" d="M112.8,26.8c0,5.8,1.1,7.9,8.2,6.7v1.8c-9.2,1.6-10.3-2.1-10.3-8.9V13h-7.2v-1.8H121V13h-8.2
	L112.8,26.8z"/>
<rect id="Rectangle_274" x="37.5" y="28.2" class="st0" width="7.1" height="7.1"/>
<path id="Path_361" class="st0" d="M30.2,10.3c-6.6,0-10.9,3.3-10.9,9.9v5.3c0,6.5,4.3,9.9,10.9,9.9l0,0h4v-6h-4
	c-2.4,0-3.9-1.1-3.9-3.4v-0.6h14.8v-5.2C41.1,13.6,36.8,10.3,30.2,10.3z M26.3,20.3v-0.6c0-2.3,1.6-3.4,3.9-3.4s3.9,1.1,3.9,3.4v0.6
	H26.3z"/>
<path id="Path_362" class="st0" d="M12,10.5c-6.6,0-10.9,3.3-10.9,9.9v14.9h6.9V19.9c0-2.3,1.6-3.4,3.9-3.4l0,0h5v-6H12z"/>
<path id="Path_363" class="st0" d="M5,49.8l-1.6-0.3c-1.3-0.3-2.2-1-2.2-2.2c0-1.5,1.1-2.3,3.1-2.3c2,0,3.1,0.8,3.1,2.4v0.1H6.1
	v-0.1c0-1-0.6-1.5-1.9-1.5s-1.9,0.4-1.9,1.2c0,0.7,0.4,1,1.3,1.2l1.7,0.3c1.4,0.3,2.2,1,2.2,2.2c0,1.6-1.2,2.3-3.2,2.3
	S1,52.4,1,50.8v-0.1h1.2v0.1c0,1,0.7,1.4,2,1.4c1.3,0,2-0.4,2-1.3C6.2,50.3,5.8,49.9,5,49.8z"/>
<path id="Path_364" class="st0" d="M15.2,53.1v-5.3c0-1.2-0.8-1.8-2-1.8S11,46.7,11,47.9v5.2H9.8V41.6H11v4.3c0.6-0.6,1.5-1,2.4-0.9
	c1.4-0.2,2.8,0.8,3,2.3c0,0.2,0,0.4,0,0.6v5.2L15.2,53.1z"/>
<path id="Path_365" class="st0" d="M21.4,48.5c0.9-0.1,1.7,0.2,2.4,0.8v-1.5c0-1.2-0.7-1.7-1.9-1.7c-1.2,0-1.8,0.5-1.8,1.5h-1.2
	c0-1.7,1.1-2.5,3.1-2.5c1.9,0,3.1,0.9,3.1,2.8v5.3h-0.9L24,52.3c-0.7,0.7-1.6,1.1-2.5,1c-1.8,0-2.9-0.8-2.9-2.4S19.7,48.5,21.4,48.5
	z M21.7,52.2c1.2,0,2.1-0.5,2.1-1.4s-0.9-1.4-2.1-1.4s-2,0.4-2,1.4S20.5,52.2,21.7,52.2L21.7,52.2z"/>
<path id="Path_366" class="st0" d="M27.7,45.2h0.9l0.2,1c0.8-0.9,2-1.3,3.2-1v1.1c-1.9-0.3-3.1,0.4-3.1,1.7v5.2h-1.2V45.2z"/>
<path id="Path_367" class="st0" d="M40,50.6c-0.1,1.7-1.3,2.6-3.2,2.6c-2,0-3.3-1.1-3.3-3V48c0-2,1.3-3,3.3-3c2,0,3.3,1,3.3,3v1.5
	h-5.3v0.9c0,1.2,0.7,1.9,2.1,1.9c1.3,0,2-0.7,2-1.6L40,50.6z M34.7,48.5h4.1v-0.6c0-1.2-0.8-1.8-2.1-1.8c-1.3,0-2.1,0.6-2.1,1.8
	L34.7,48.5z"/>
<path id="Path_368" class="st0" d="M43.5,51.2h1.9v1.9h-1.9V51.2z"/>
<path id="Path_369" class="st0" d="M49.2,45.2h0.9l0.2,1c0.8-0.9,2-1.3,3.2-1v1.1c-1.9-0.3-3.1,0.4-3.1,1.7v5.2h-1.2V45.2z"/>
<path id="Path_370" class="st0" d="M55.1,41.9h1.2v1.8h-1.2V41.9z M55.1,45.2h1.2v7.9h-1.2V45.2z"/>
<path id="Path_371" class="st0" d="M58.8,48c-0.1-1.5,0.9-2.8,2.4-3c0.2,0,0.4,0,0.5,0c0.9-0.1,1.8,0.3,2.4,0.9v-4.4h1.2v11.5h-0.9
	l-0.2-0.9c-0.6,0.7-1.5,1.2-2.5,1.1c-1.5,0.1-2.8-1-3-2.5c0-0.2,0-0.4,0-0.5L58.8,48z M60,50.3c-0.1,1,0.7,1.8,1.7,1.9
	c0.1,0,0.2,0,0.3,0c1,0.1,2-0.6,2.1-1.6c0-0.1,0-0.2,0-0.3V48c0-1-0.8-1.9-1.8-1.9c-0.1,0-0.2,0-0.3,0c-1-0.1-1.9,0.5-2,1.5
	c0,0.1,0,0.2,0,0.3L60,50.3z"/>
<path id="Path_372" class="st0" d="M74.3,50.6c-0.1,1.7-1.3,2.6-3.2,2.6c-2,0-3.3-1.1-3.3-3V48c0-2,1.3-3,3.3-3c2,0,3.3,1,3.3,3v1.5
	H69v0.9c0,1.2,0.7,1.9,2.1,1.9c1.3,0,2-0.7,2-1.6L74.3,50.6z M69,48.5h4.1v-0.6c0-1.2-0.8-1.8-2.1-1.8c-1.3,0-2.1,0.6-2.1,1.8V48.5z
	"/>
<path id="Path_373" class="st0" d="M77.9,51.2h1.9v1.9h-1.9V51.2z"/>
<path id="Path_374" class="st0" d="M89.9,50.6c-0.1,1.7-1.3,2.6-3.2,2.6c-2,0-3.3-1.1-3.3-3V48c0-2,1.3-3,3.3-3c2,0,3.3,1,3.3,3v1.5
	h-5.3v0.9c0,1.2,0.7,1.9,2.1,1.9c1.3,0,2-0.7,2-1.6L89.9,50.6z M84.5,48.5h4.1v-0.6c0-1.2-0.8-1.8-2.1-1.8c-1.3,0-2.1,0.6-2.1,1.8
	V48.5z"/>
<path id="Path_375" class="st0" d="M92.3,45.2h0.9l0.2,0.9c0.6-0.7,1.5-1.1,2.5-1.1c1.4-0.2,2.8,0.8,3,2.3c0,0.2,0,0.4,0,0.6v5.2
	h-1.2v-5.3c0-1.2-0.8-1.8-2-1.8s-2.1,0.6-2.1,1.8v5.2h-1.2V45.2z"/>
<path id="Path_376" class="st0" d="M101.8,45.2h1.2v8.4c0,1.9-0.5,3.1-3,2.6v-1c1.4,0.3,1.8-0.2,1.8-1.5L101.8,45.2z M101.8,41.9
	h1.2v1.8h-1.2V41.9z"/>
<path id="Path_377" class="st0" d="M112,50.3c0,2-1.3,3-3.3,3s-3.3-1-3.3-3V48c0-2,1.3-3,3.3-3c2,0,3.3,1,3.3,3V50.3z M110.8,47.9
	c0-1.2-0.8-1.8-2.1-1.8c-1.3,0-2.1,0.6-2.1,1.8v2.4c0,1.2,0.8,1.9,2.1,1.9s2.1-0.6,2.1-1.9V47.9z"/>
<path id="Path_378" class="st0" d="M115.4,56.2l1.2-3.1h-0.2l-3.1-7.9h1.3l2.6,6.6l2.6-6.6h1.2l-4.3,11H115.4z"/>
</svg>
